<?xml version="1.0" encoding="utf-8"?>
<!-- Generator: Adobe Illustrator 24.2.3, SVG Export Plug-In . SVG Version: 6.00 Build 0)  -->
<svg version="1.1" id="_x31__px" xmlns="http://www.w3.org/2000/svg" xmlns:xlink="http://www.w3.org/1999/xlink" x="0px" y="0px"
	 viewBox="0 0 512 512" style="enable-background:new 0 0 512 512;" xml:space="preserve">
<style type="text/css">
	.st0{fill:#5F25E9;}
</style>
<g>
	<g>
		<path class="st0" d="M459.74,269.13c4.51-6.69,7.15-14.75,7.15-23.41v-8c0-23.14-18.83-41.97-41.97-41.97
			c-11.55,0-22.02,4.69-29.62,12.26c-19.65-58.45-74.97-100.68-139.96-100.68s-120.31,42.22-139.96,100.68
			c-7.6-7.57-18.07-12.26-29.62-12.26c-23.14,0-41.97,18.83-41.97,41.97v8c0,8.66,2.64,16.71,7.15,23.41
			C21.88,275.26,0,301.08,0,331.93v20.08c0,5.51,4.47,9.97,9.97,9.97h51.86c5.51,0,9.97-4.47,9.97-9.97c0-5.51-4.47-9.97-9.97-9.97
			H19.95v-10.11c0-24.39,19.84-44.23,44.23-44.23h47.21c3.83,16.84,10.54,32.59,19.59,46.71l-113.8,113.8
			c-14.57,14.57-14.57,38.29,0,52.86C24.46,508.36,34.03,512,43.6,512s19.14-3.64,26.43-10.93l62.74-62.74
			c3.89-3.89,3.89-10.21,0-14.11c-3.9-3.89-10.21-3.89-14.11,0l-62.74,62.74c-6.8,6.8-17.85,6.8-24.65,0c-6.8-6.8-6.8-17.85,0-24.65
			L142.99,350.6c27.1,31.78,67.4,51.97,112.34,51.97c70.15,0,129.01-49.18,143.95-114.87h47.21c24.39,0,44.23,19.84,44.23,44.23
			v10.11h-93.76c-5.51,0-9.97,4.47-9.97,9.97c0,5.51,4.47,9.97,9.97,9.97h103.73c5.51,0,9.97-4.47,9.97-9.97v-20.08
			C510.67,301.08,488.79,275.26,459.74,269.13z M107.78,245.73c0,12.14-9.88,22.02-22.02,22.02s-22.02-9.88-22.02-22.02v-8
			c0-12.14,9.88-22.02,22.02-22.02s22.02,9.88,22.02,22.02V245.73z M255.33,382.62c-70.4,0-127.67-57.27-127.67-127.67
			s57.27-127.67,127.67-127.67S383,184.56,383,254.95S325.73,382.62,255.33,382.62z M446.94,245.73c0,12.14-9.88,22.02-22.02,22.02
			s-22.02-9.88-22.02-22.02v-8c0-12.14,9.88-22.02,22.02-22.02s22.02,9.88,22.02,22.02V245.73z"/>
	</g>
</g>
<g>
	<g>
		<path class="st0" d="M255.33,147.23c-59.4,0-107.72,48.32-107.72,107.72c0,30.83,13.02,58.67,33.85,78.33
			c0.36,0.38,0.74,0.75,1.16,1.08c19.18,17.58,44.71,28.32,72.71,28.32s53.54-10.74,72.71-28.32c0.42-0.33,0.8-0.69,1.16-1.08
			c20.83-19.65,33.85-47.5,33.85-78.33C363.05,195.56,314.73,147.23,255.33,147.23z M255.33,342.73c-20.51,0-39.4-7.07-54.36-18.9
			c10.6-20.05,31.25-32.67,54.36-32.67s43.76,12.62,54.36,32.67C294.73,335.65,275.84,342.73,255.33,342.73z M234.32,250.19v-7.75
			c0-11.59,9.43-21.02,21.02-21.02c11.59,0,21.02,9.43,21.02,21.02v7.75c0,11.59-9.43,21.02-21.02,21.02
			C243.74,271.2,234.32,261.78,234.32,250.19z M324.28,309.21c-9.14-14.58-22.51-25.7-38.16-32.04
			c6.33-7.21,10.19-16.66,10.19-26.99v-7.75c0-22.59-18.38-40.97-40.97-40.97s-40.97,18.38-40.97,40.97v7.75
			c0,10.33,3.85,19.77,10.19,26.99c-15.65,6.34-29.03,17.46-38.16,32.04c-11.79-14.94-18.83-33.79-18.83-54.26
			c0-48.4,39.37-87.77,87.77-87.77s87.77,39.37,87.77,87.77C343.11,275.42,336.07,294.27,324.28,309.21z"/>
	</g>
</g>
<g>
	<g>
		<path class="st0" d="M75.8,263.52c-0.26-0.26-0.62-0.41-0.98-0.41s-0.72,0.15-0.98,0.41c-0.26,0.26-0.41,0.62-0.41,0.98
			s0.15,0.72,0.41,0.98c0.26,0.26,0.62,0.41,0.98,0.41s0.72-0.15,0.98-0.41c0.26-0.26,0.41-0.62,0.41-0.98S76.05,263.78,75.8,263.52
			z"/>
	</g>
</g>
<g>
	<g>
		<path class="st0" d="M255.54,1.35c-5.51,0-9.97,4.47-9.97,9.97v33.94c0,5.51,4.47,9.97,9.97,9.97c5.51,0,9.97-4.47,9.97-9.97
			V11.32C265.51,5.82,261.04,1.35,255.54,1.35z"/>
	</g>
</g>
<g>
	<g>
		<path class="st0" d="M262.58,71.1c-1.85-1.86-4.42-2.92-7.05-2.92c-2.62,0-5.2,1.07-7.05,2.92s-2.92,4.43-2.92,7.05
			s1.07,5.2,2.92,7.05c1.86,1.86,4.43,2.92,7.05,2.92c2.63,0,5.2-1.07,7.05-2.92c1.86-1.85,2.92-4.43,2.92-7.05
			C265.51,75.53,264.44,72.95,262.58,71.1z"/>
	</g>
</g>
<g>
	<g>
		<path class="st0" d="M340.09,40.47c-3.9-3.89-10.21-3.89-14.11,0L308.46,58c-3.89,3.89-3.89,10.21,0,14.11
			c1.95,1.95,4.5,2.92,7.05,2.92s5.1-0.97,7.05-2.92l17.53-17.53C343.99,50.68,343.99,44.37,340.09,40.47z"/>
	</g>
</g>
<g>
	<g>
		<path class="st0" d="M202.38,58.12l-17.7-17.7c-3.9-3.89-10.21-3.89-14.11,0c-3.89,3.89-3.89,10.21,0,14.11l17.7,17.7
			c1.95,1.95,4.5,2.92,7.05,2.92s5.1-0.97,7.05-2.92C206.28,68.34,206.28,62.02,202.38,58.12z"/>
	</g>
</g>
</svg>
