<?xml version="1.0" encoding="utf-8"?>
<!-- Generator: Adobe Illustrator 24.2.3, SVG Export Plug-In . SVG Version: 6.00 Build 0)  -->
<svg version="1.1" id="_x31__px" xmlns="http://www.w3.org/2000/svg" xmlns:xlink="http://www.w3.org/1999/xlink" x="0px" y="0px"
	 viewBox="0 0 512 512" style="enable-background:new 0 0 512 512;" xml:space="preserve">
<style type="text/css">
	.st0{fill:#5F25E9;}
</style>
<g>
	<g>
		<path class="st0" d="M86.57,169.79c-1.86-1.86-4.43-2.93-7.06-2.93c-2.63,0-5.2,1.07-7.06,2.93c-1.86,1.86-2.93,4.43-2.93,7.06
			c0,2.63,1.07,5.2,2.93,7.06c1.86,1.86,4.43,2.93,7.06,2.93c2.63,0,5.2-1.07,7.06-2.93c1.86-1.86,2.93-4.43,2.93-7.06
			C89.5,174.22,88.43,171.64,86.57,169.79z"/>
	</g>
</g>
<g>
	<g>
		<path class="st0" d="M462.9,0.13H260.89c-5.51,0-9.98,4.47-9.98,9.98s4.47,9.98,9.98,9.98H462.9c5.51,0,9.98,4.48,9.98,9.98
			v451.28c0,5.51-4.48,9.98-9.98,9.98H99.48c-5.51,0-9.98-4.48-9.98-9.98V214.12c0-5.51-4.47-9.98-9.98-9.98s-9.98,4.47-9.98,9.98
			v267.24c0,16.52,13.44,29.95,29.95,29.95H462.9c16.52,0,29.95-13.44,29.95-29.95V30.08C492.86,13.57,479.42,0.13,462.9,0.13z"/>
	</g>
</g>
<g>
	<g>
		<path class="st0" d="M281.19,40.06c-6.79,0-13.62,0.52-20.29,1.54c-5.45,0.84-9.19,5.93-8.36,11.38
			c0.84,5.45,5.93,9.19,11.38,8.36c5.67-0.87,11.48-1.31,17.27-1.31c62.21,0,112.82,50.61,112.82,112.82
			c0,27.63-9.99,52.96-26.53,72.59c-7.32-12.59-17.32-23.45-29.46-31.87c-7.08-4.92-14.69-8.84-22.66-11.74
			c9.09-8.89,14.75-21.28,14.75-34.97v-9.73c0-26.98-21.95-48.92-48.92-48.92s-48.92,21.95-48.92,48.92v9.73
			c0,13.69,5.66,26.08,14.75,34.97c-7.97,2.9-15.58,6.83-22.66,11.74c-12.2,8.46-22.24,19.39-29.57,32.05
			c-12.61-14.98-21.42-33.41-24.87-53.96c-0.91-5.44-6.06-9.1-11.5-8.19c-5.44,0.91-9.11,6.06-8.2,11.5
			c5.13,30.61,21.03,58.63,44.75,78.9c23.99,20.5,54.61,31.78,86.21,31.78c73.22,0,132.79-59.57,132.79-132.79
			S354.42,40.06,281.19,40.06z M252.24,157.13c0-15.97,12.99-28.95,28.95-28.95c15.96,0,28.95,12.99,28.95,28.95v9.73
			c0,15.96-12.99,28.95-28.95,28.95c-15.96,0-28.95-12.99-28.95-28.95V157.13z M281.19,285.67c-27.03,0-52.02-9.44-71.58-25.44
			c13.41-27.21,40.81-44.45,71.58-44.45c30.7,0,58.06,17.17,71.49,44.28C333.21,276.06,308.31,285.67,281.19,285.67z"/>
	</g>
</g>
<g>
	<g>
		<path class="st0" d="M373.4,397.5H231.63c-5.51,0-9.98,4.47-9.98,9.98c0,5.51,4.47,9.98,9.98,9.98H373.4
			c5.51,0,9.98-4.47,9.98-9.98C383.39,401.97,378.92,397.5,373.4,397.5z"/>
	</g>
</g>
<g>
	<g>
		<path class="st0" d="M196.04,344.51c-1.86-1.86-4.43-2.93-7.06-2.93s-5.2,1.07-7.06,2.93s-2.93,4.43-2.93,7.06
			c0,2.63,1.07,5.2,2.93,7.06c1.86,1.86,4.43,2.93,7.06,2.93s5.2-1.07,7.06-2.93c1.87-1.86,2.93-4.43,2.93-7.06
			C198.97,348.94,197.91,346.37,196.04,344.51z"/>
	</g>
</g>
<g>
	<g>
		<path class="st0" d="M196.04,400.42c-1.86-1.86-4.42-2.93-7.06-2.93c-2.63,0-5.2,1.07-7.06,2.93s-2.93,4.43-2.93,7.06
			c0,2.63,1.07,5.2,2.93,7.06c1.86,1.86,4.43,2.93,7.06,2.93s5.2-1.07,7.06-2.93c1.87-1.86,2.93-4.42,2.93-7.06
			C198.97,404.85,197.91,402.28,196.04,400.42z"/>
	</g>
</g>
<g>
	<g>
		<path class="st0" d="M373.4,341.59H231.63c-5.51,0-9.98,4.47-9.98,9.98c0,5.51,4.47,9.98,9.98,9.98H373.4
			c5.51,0,9.98-4.47,9.98-9.98C383.39,346.06,378.92,341.59,373.4,341.59z"/>
	</g>
</g>
<g>
	<g>
		<path class="st0" d="M186.97,57.67c-3.9-3.9-10.22-3.9-14.12,0l-32.51,32.51l-11.11-11.11c-3.9-3.9-10.22-3.9-14.12,0
			c-3.9,3.9-3.9,10.22,0,14.12l18.17,18.17c1.95,1.95,4.5,2.92,7.06,2.92s5.11-0.98,7.06-2.92l39.57-39.57
			C190.87,67.89,190.87,61.56,186.97,57.67z"/>
	</g>
</g>
<g>
	<g>
		<path class="st0" d="M151.4,0.13c-45.14,0-81.87,36.73-81.87,81.87s36.73,81.87,81.87,81.87s81.87-36.73,81.87-81.87
			S196.54,0.13,151.4,0.13z M151.4,143.9c-34.13,0-61.9-27.77-61.9-61.9s27.77-61.9,61.9-61.9s61.9,27.77,61.9,61.9
			S185.53,143.9,151.4,143.9z"/>
	</g>
</g>
</svg>
