<?xml version="1.0" encoding="utf-8"?>
<!-- Generator: Adobe Illustrator 24.2.3, SVG Export Plug-In . SVG Version: 6.00 Build 0)  -->
<svg version="1.1" id="_x31__px" xmlns="http://www.w3.org/2000/svg" xmlns:xlink="http://www.w3.org/1999/xlink" x="0px" y="0px"
	 viewBox="0 0 512 512" style="enable-background:new 0 0 512 512;" xml:space="preserve">
<style type="text/css">
	.st0{fill:#5F25E9;}
</style>
<g>
	<g>
		<path class="st0" d="M161.42,352.91c-1.86-1.86-4.44-2.93-7.07-2.93c-2.63,0-5.21,1.07-7.07,2.93c-1.86,1.86-2.93,4.44-2.93,7.07
			c0,2.63,1.07,5.21,2.93,7.07c1.86,1.86,4.44,2.93,7.07,2.93c2.63,0,5.21-1.07,7.07-2.93c1.86-1.86,2.93-4.44,2.93-7.07
			C164.35,357.34,163.28,354.77,161.42,352.91z"/>
	</g>
</g>
<g>
	<g>
		<path class="st0" d="M495.27,363.96L423,291.68c-10.79-10.79-25.13-16.73-40.38-16.73c-15.26,0-29.6,5.94-40.38,16.73l-25.2,25.2
			c0,0,0,0,0,0s0,0,0,0l-10.07,10.07L184.98,204.99l35.28-35.28c22.27-22.27,22.27-58.5,0-80.77l-72.21-72.21
			c-22.27-22.27-58.5-22.27-80.77,0L48.23,35.77c-64.02,64.02-64.02,168.19,0,232.21l70.23,70.23c3.9,3.9,10.23,3.9,14.14,0
			c3.9-3.9,3.9-10.23,0-14.14l-70.23-70.23C10.62,202.11,6.5,120.5,50,64l75.92,75.92c1.95,1.95,4.51,2.93,7.07,2.93
			c2.56,0,5.12-0.98,7.07-2.93c3.9-3.9,3.9-10.23,0-14.14L63.28,49l18.14-18.14c14.47-14.47,38.02-14.47,52.49,0l72.21,72.21
			c14.47,14.47,14.47,38.02,0,52.49l-42.35,42.35c-1.87,1.88-2.93,4.42-2.93,7.07s1.05,5.19,2.93,7.07l136.11,136.11
			c3.9,3.9,10.24,3.9,14.14,0l10.07-10.07l123.92,123.92c-25.08,19.36-55.68,29.86-87.89,29.86c-38.52,0-74.73-15-101.97-42.24
			l-71.23-71.23c-3.9-3.9-10.23-3.9-14.14,0c-3.9,3.9-3.9,10.23,0,14.14l71.23,71.23c31.01,31.01,72.25,48.09,116.11,48.09
			c43.86,0,85.09-17.08,116.11-48.09l19.05-19.05C506.06,433.94,512,419.6,512,404.34C512,389.09,506.06,374.74,495.27,363.96z
			 M481.13,430.59L463,448.72L338.23,323.96l18.14-18.14c7.01-7.01,16.33-10.87,26.25-10.87c9.91,0,19.23,3.86,26.25,10.87
			l72.28,72.28c7.01,7.01,10.87,16.33,10.87,26.25C492.01,414.25,488.15,423.58,481.13,430.59z"/>
	</g>
</g>
<g>
	<g>
		<path class="st0" d="M164.33,150.06c-1.86-1.87-4.44-2.93-7.07-2.93c-2.63,0-5.21,1.06-7.07,2.93c-1.86,1.86-2.93,4.43-2.93,7.07
			c0,2.63,1.07,5.21,2.93,7.07c1.86,1.86,4.44,2.93,7.07,2.93c2.63,0,5.21-1.07,7.07-2.93c1.86-1.86,2.93-4.44,2.93-7.07
			C167.26,154.5,166.19,151.92,164.33,150.06z"/>
	</g>
</g>
<g>
	<g>
		<path class="st0" d="M421.61,72.22c-1.18-17.14-15-30.96-32.14-32.14c-9.72-0.66-18.99,2.61-26.08,9.24
			c-7,6.53-11.01,15.77-11.01,25.34c0,5.52,4.48,10,10,10s10-4.48,10-10c0-4.11,1.66-7.92,4.66-10.73c3-2.8,6.93-4.19,11.07-3.9
			c7.24,0.5,13.07,6.33,13.57,13.57c0.5,7.32-4.29,13.78-11.4,15.37c-7.79,1.74-13.23,8.51-13.23,16.46v18.01c0,5.52,4.48,10,10,10
			c5.52,0,10-4.48,10-10v-15.58C412.52,103.23,422.74,88.63,421.61,72.22z"/>
	</g>
</g>
<g>
	<g>
		<path class="st0" d="M394.1,151.94c-1.86-1.86-4.44-2.92-7.07-2.92c-2.63,0-5.21,1.06-7.07,2.92c-1.86,1.87-2.93,4.44-2.93,7.08
			c0,2.63,1.07,5.21,2.93,7.07c1.86,1.86,4.44,2.93,7.07,2.93c2.63,0,5.21-1.07,7.07-2.93c1.86-1.86,2.93-4.44,2.93-7.07
			C397.03,156.38,395.96,153.81,394.1,151.94z"/>
	</g>
</g>
<g>
	<g>
		<path class="st0" d="M462.01,0H312.05c-27.56,0-49.99,22.42-49.99,49.99v113.94c0,27.56,22.42,49.99,49.99,49.99h37.91
			l29.27,38.11c1.89,2.46,4.82,3.91,7.93,3.91c0.01,0,0.01,0,0.02,0c3.11-0.01,6.05-1.46,7.93-3.94l29.02-38.08h37.88
			c27.56,0,49.99-22.42,49.99-49.99V49.99C512,22.42,489.58,0,462.01,0z M492.01,163.93L492.01,163.93
			c0,16.54-13.46,29.99-29.99,29.99h-42.82c-3.12,0-6.06,1.46-7.95,3.94l-24.1,31.62l-24.31-31.65c-1.89-2.46-4.82-3.91-7.93-3.91
			h-42.84c-16.54,0-29.99-13.45-29.99-29.99V49.99c0-16.54,13.45-29.99,29.99-29.99h149.96c16.54,0,29.99,13.45,29.99,29.99V163.93z
			"/>
	</g>
</g>
</svg>
