<?xml version="1.0" encoding="utf-8"?>
<!-- Generator: Adobe Illustrator 24.2.3, SVG Export Plug-In . SVG Version: 6.00 Build 0)  -->
<svg version="1.1" id="_x31__px" xmlns="http://www.w3.org/2000/svg" xmlns:xlink="http://www.w3.org/1999/xlink" x="0px" y="0px"
	 viewBox="0 0 512 512" style="enable-background:new 0 0 512 512;" xml:space="preserve">
<style type="text/css">
	.st0{fill:#5F25E9;}
</style>
<g>
	<g>
		<path class="st0" d="M263.07,356.92c-1.86-1.86-4.44-2.93-7.07-2.93s-5.21,1.07-7.07,2.93s-2.93,4.44-2.93,7.07
			s1.07,5.2,2.93,7.07c1.86,1.86,4.44,2.93,7.07,2.93s5.21-1.07,7.07-2.93c1.86-1.86,2.93-4.44,2.93-7.07
			C266,361.35,264.93,358.77,263.07,356.92z"/>
	</g>
</g>
<g>
	<g>
		<path class="st0" d="M457.2,54h-59.2V20c0-11.03-8.97-20-20-20H134c-11.03,0-20,8.97-20,20v34H54.8
			c-15.33,0-27.81,12.45-27.81,27.75v296.49c0,15.3,12.47,27.76,27.81,27.76h152.18v46.2C181.75,454.75,162,476.11,162,502
			c0,5.52,4.48,10,10,10H340c5.52,0,10-4.48,10-10c0-25.89-19.75-47.25-44.98-49.81V406H457.2c15.33,0,27.81-12.45,27.81-27.76
			V81.75C485.01,66.45,472.54,54,457.2,54z M46.99,81.75c0-4.28,3.5-7.75,7.81-7.75h59.2v67.01c0,5.52,4.48,10,10,10s10-4.48,10-10
			V20H378v301.99H133.99V213.37c0-5.52-4.48-10-10-10s-10,4.48-10,10v108.62h-67V81.75z M328.29,492H183.71
			c4.13-11.68,15.28-20.06,28.35-20.06h4.92h78.04h4.92C313.01,471.94,324.16,480.32,328.29,492z M226.98,451.94V406h58.04v45.94
			H226.98z M465.01,378.24c0,4.28-3.5,7.75-7.8,7.75H54.8c-4.3,0-7.81-3.48-7.81-7.75v-36.25h77h264.01h77L465.01,378.24
			L465.01,378.24z M465.01,321.99h-67V74h59.2c4.3,0,7.8,3.48,7.8,7.75L465.01,321.99L465.01,321.99z"/>
	</g>
</g>
<g>
	<g>
		<path class="st0" d="M256,40c-40.81,0-74,33.2-74,74c0,21.05,8.85,40.06,23.01,53.55c0.36,0.4,0.75,0.78,1.18,1.12
			c13.16,12,30.65,19.33,49.82,19.33s36.66-7.33,49.82-19.33c0.43-0.34,0.82-0.72,1.18-1.12C321.16,154.06,330,135.05,330,114
			C330,73.2,296.81,40,256,40z M256,168.01c-11.54,0-22.23-3.65-31.01-9.84c6.67-10.5,18.2-16.99,31.01-16.99s24.34,6.5,31.01,16.99
			C278.23,164.36,267.54,168.01,256,168.01z M245.71,110.88v-5.07c0-5.68,4.62-10.29,10.29-10.29c5.68,0,10.29,4.62,10.29,10.29
			v5.07c0,5.68-4.62,10.29-10.29,10.29C250.32,121.18,245.71,116.56,245.71,110.88z M301.2,143.51
			c-5.26-6.93-11.99-12.49-19.67-16.34c3.02-4.71,4.77-10.3,4.77-16.29v-5.07c0-16.7-13.59-30.29-30.29-30.29
			s-30.29,13.59-30.29,30.29v5.07c0,5.99,1.76,11.58,4.77,16.29c-7.68,3.84-14.42,9.41-19.67,16.34
			c-5.56-8.49-8.81-18.62-8.81-29.51c0-29.78,24.23-54,54-54c29.78,0,54,24.22,54,54C310,124.89,306.76,135.02,301.2,143.51z"/>
	</g>
</g>
<g>
	<g>
		<path class="st0" d="M131.07,167.94c-1.86-1.86-4.44-2.93-7.07-2.93s-5.21,1.07-7.07,2.93c-1.86,1.86-2.93,4.44-2.93,7.07
			s1.07,5.21,2.93,7.07s4.44,2.93,7.07,2.93s5.21-1.07,7.07-2.93c1.86-1.86,2.93-4.44,2.93-7.07S132.93,169.8,131.07,167.94z"/>
	</g>
</g>
<g>
	<g>
		<path class="st0" d="M318,212.01H202c-5.52,0-10,4.48-10,10s4.48,10,10,10H318c5.52,0,10-4.48,10-10
			C328,216.49,323.53,212.01,318,212.01z"/>
	</g>
</g>
<g>
	<g>
		<path class="st0" d="M325.07,258.94c-1.86-1.86-4.44-2.93-7.07-2.93s-5.21,1.07-7.07,2.93s-2.93,4.44-2.93,7.07
			s1.07,5.21,2.93,7.07c1.86,1.86,4.44,2.93,7.07,2.93s5.21-1.07,7.07-2.93c1.86-1.86,2.93-4.44,2.93-7.07
			S326.93,260.8,325.07,258.94z"/>
	</g>
</g>
<g>
	<g>
		<path class="st0" d="M279.67,256.01H202c-5.52,0-10,4.48-10,10s4.48,10,10,10h77.67c5.52,0,10-4.48,10-10
			S285.2,256.01,279.67,256.01z"/>
	</g>
</g>
</svg>
