<?xml version="1.0" encoding="utf-8"?>
<!-- Generator: Adobe Illustrator 24.2.3, SVG Export Plug-In . SVG Version: 6.00 Build 0)  -->
<svg version="1.1" id="OBJECTS" xmlns="http://www.w3.org/2000/svg" xmlns:xlink="http://www.w3.org/1999/xlink" x="0px" y="0px"
	 viewBox="0 0 750 500" style="enable-background:new 0 0 750 500;" xml:space="preserve">
<style type="text/css">
	.st0{opacity:0.1;fill:#467DE4;}
	.st1{fill:#B7D4F6;}
	.st2{fill:#EEF4FD;}
	.st3{fill:#D9EAFF;}
	.st4{opacity:0.2;fill:#69A5ED;}
	.st5{fill:#3F1EC6;}
	.st6{fill:#B6D2F3;}
	.st7{clip-path:url(#SVGID_2_);fill:#FFFFFF;}
	.st8{clip-path:url(#SVGID_2_);fill:#5F25E9;}
	.st9{fill:#ECF3F7;}
	.st10{clip-path:url(#SVGID_4_);fill:#45A2F1;}
	.st11{clip-path:url(#SVGID_4_);}
	.st12{fill:#06189D;}
	.st13{fill:#040E67;}
	.st14{clip-path:url(#SVGID_4_);fill:#ECF3F7;}
	.st15{clip-path:url(#SVGID_4_);fill:#85AEFE;}
	.st16{fill:#FFCB87;}
	.st17{opacity:0.3;fill:#45A2F1;}
	.st18{clip-path:url(#SVGID_6_);fill:#FFFFFF;}
	.st19{clip-path:url(#SVGID_6_);fill:#5F25E9;}
	.st20{clip-path:url(#SVGID_8_);fill:#45A2F1;}
	.st21{clip-path:url(#SVGID_8_);}
	.st22{clip-path:url(#SVGID_8_);fill:#ECF3F7;}
	.st23{clip-path:url(#SVGID_8_);fill:#85AEFE;}
	.st24{clip-path:url(#SVGID_10_);fill:#FFFFFF;}
	.st25{clip-path:url(#SVGID_10_);fill:#5F25E9;}
	.st26{clip-path:url(#SVGID_12_);fill:#B7D4F6;}
	.st27{clip-path:url(#SVGID_12_);}
	.st28{fill:#F0A681;}
	.st29{clip-path:url(#SVGID_12_);fill:#ECF3F7;}
	.st30{clip-path:url(#SVGID_12_);fill:#85AEFE;}
	.st31{clip-path:url(#SVGID_14_);fill:#5F25E9;}
	.st32{clip-path:url(#SVGID_16_);fill:#EEF4FD;}
	.st33{clip-path:url(#SVGID_16_);}
	.st34{clip-path:url(#SVGID_16_);fill:#85AEFE;}
	.st35{fill:#FFFFFF;}
	.st36{clip-path:url(#SVGID_18_);fill:#FFFFFF;}
	.st37{clip-path:url(#SVGID_18_);fill:#5F25E9;}
	.st38{clip-path:url(#SVGID_20_);fill:#B7D4F6;}
	.st39{clip-path:url(#SVGID_20_);}
	.st40{clip-path:url(#SVGID_20_);fill:#85AEFE;}
	.st41{clip-path:url(#SVGID_22_);}
	.st42{opacity:0.3;fill:#467DE4;}
</style>
<g>
	<polygon class="st0" points="375.54,211.72 127.14,355.86 375.54,500 623.93,355.86 	"/>
	<g>
		<g>
			<polygon class="st1" points="376.06,450.26 623.45,307.07 623.45,294.34 376.06,437.53 			"/>
			<polygon class="st2" points="375.54,150.21 127.14,294.35 375.54,438.49 623.93,294.35 			"/>
			<polygon class="st3" points="376.14,450.33 127.32,307.15 127.32,294.42 376.14,437.61 			"/>
		</g>
		<polygon class="st4" points="421.19,365.9 269.36,279.32 355.04,228.7 506.87,315.28 		"/>
		<g>
			<path class="st5" d="M492.12,300.91c0,6.76-4.04,9.92-9.02,7.06l-125.24-71.94c-4.98-2.86-9.02-10.66-9.02-17.42V9.19
				c0-6.76,4.04-9.92,9.02-7.06L483.1,74.07c4.98,2.86,9.02,10.66,9.02,17.42V300.91z"/>
			<g>
				<polygon class="st5" points="343.29,5.16 352.82,1.35 357.95,11.36 348.53,16.6 				"/>
				<polygon class="st6" points="488.41,308.68 478.88,312.5 473.75,302.49 483.17,297.24 				"/>
			</g>
			<g>
				<g>
					<g>
						<defs>
							<path id="SVGID_1_" d="M482.58,304.73c0,6.76-4.04,9.92-9.02,7.06l-125.24-71.94c-4.98-2.86-9.02-10.66-9.02-17.42V13.01
								c0-6.76,4.04-9.92,9.02-7.06l125.24,71.94c4.98,2.86,9.02,10.66,9.02,17.42V304.73z"/>
						</defs>
						<clipPath id="SVGID_2_">
							<use xlink:href="#SVGID_1_"  style="overflow:visible;"/>
						</clipPath>
						<path class="st7" d="M482.58,304.73c0,6.76-4.04,9.92-9.02,7.06l-125.24-71.94c-4.98-2.86-9.02-10.66-9.02-17.42V13.01
							c0-6.76,4.04-9.92,9.02-7.06l125.24,71.94c4.98,2.86,9.02,10.66,9.02,17.42V304.73z"/>
						<polygon class="st8" points="501.61,123.92 324.6,22.24 324.6,-28.53 501.61,73.15 						"/>
					</g>
					<g>
						<path class="st9" d="M352.37,24.14c0,1.75-1.05,2.57-2.34,1.83c-1.29-0.74-2.34-2.76-2.34-4.52c0-1.75,1.05-2.57,2.34-1.83
							C351.32,20.37,352.37,22.39,352.37,24.14z"/>
						<path class="st9" d="M364.39,31.05c0,1.75-1.05,2.57-2.34,1.83c-1.29-0.74-2.34-2.76-2.34-4.52c0-1.75,1.05-2.57,2.34-1.83
							C363.35,27.28,364.39,29.3,364.39,31.05z"/>
						<path class="st9" d="M376.42,37.96c0,1.75-1.05,2.57-2.34,1.83c-1.29-0.74-2.34-2.76-2.34-4.52c0-1.75,1.05-2.57,2.34-1.83
							C375.37,34.18,376.42,36.2,376.42,37.96z"/>
					</g>
				</g>
				<g>
					<defs>
						<path id="SVGID_3_" d="M451.52,158.6c0,30.42-18.17,44.64-40.58,31.77c-22.41-12.87-40.58-47.97-40.58-78.39
							c0-30.42,18.17-44.64,40.58-31.77C433.35,93.09,451.52,128.18,451.52,158.6z"/>
					</defs>
					<clipPath id="SVGID_4_">
						<use xlink:href="#SVGID_3_"  style="overflow:visible;"/>
					</clipPath>
					<path class="st10" d="M451.52,158.6c0,30.42-18.17,44.64-40.58,31.77c-22.41-12.87-40.58-47.97-40.58-78.39
						c0-30.42,18.17-44.64,40.58-31.77C433.35,93.09,451.52,128.18,451.52,158.6z"/>
					<g class="st11">
						<g>
							<polygon class="st9" points="406.53,159.04 416.81,164.95 416.81,147.6 406.53,141.7 							"/>
							<path class="st9" d="M395.33,115.23c0.1,5.23-0.3,11.14,1.14,16.87c4.35,17.3,26.75,30.57,30.55,17.07
								c1.25-4.43,0.95-10.72,1.01-16.05c0.06-5.89-0.17-11.99-0.57-18.12c-0.66-10.22-8.96-18.72-14.97-22.24
								c-5.44-3.19-15.97-5.08-16.61,4.09C395.47,102.81,395.21,108.93,395.33,115.23z"/>
							<g>
								<path class="st9" d="M396.47,117.57c-0.21-0.8-0.43-1.58-0.69-2.37c-0.05-0.16-0.12-0.42-0.15-0.54
									c0.02,0.09,0.07,0.29,0.15,0.64c-0.09-0.36-0.18-0.72-0.29-1.08c-0.5-1.17-0.52-1.22-0.07-0.15
									c-0.46-1.14-1.27-2.34-2.09-2.87c-0.09-0.1-0.18-0.19-0.28-0.29c-1.23-1.13-2.49-1.17-3.31-0.37
									c-1.79,1.74-1.27,6.27,0.28,9.85c0.67,1.55,1.9,2.99,2.97,3.55c1.43,0.74,2.58,0.18,3.25-1.09
									C396.93,121.55,397,119.64,396.47,117.57z"/>
								<path class="st9" d="M427.09,140.56c0.67,2.05,1.82,3.93,3.25,4.83c1.08,0.68,2.31,0.65,2.97-0.13
									c1.55-1.8,2.08-5.72,0.29-9.52c-0.82-1.74-2.08-3.14-3.31-3.43c-0.1-0.02-0.19-0.03-0.28-0.03
									c-0.82-0.41-1.63-0.14-2.09,0.47c0.45-0.55,0.42-0.53-0.07,0.06c-0.11,0.24-0.2,0.49-0.29,0.75
									c0.08-0.26,0.13-0.4,0.15-0.47c-0.03,0.09-0.09,0.28-0.15,0.37c-0.26,0.5-0.48,1.02-0.69,1.58
									C426.34,136.5,426.41,138.49,427.09,140.56z"/>
							</g>
							<path class="st12" d="M434.81,191.25c-0.49-12.31-10.66-27.76-23.14-34.92c-12.48-7.17-22.65-3.4-23.14,8.34l-0.02-0.01
								v65.89l46.32,26.61v-65.9L434.81,191.25z"/>
						</g>
						<path class="st13" d="M430.92,106.8c-6.04-12.55-28.56-34.77-31.41-19.95c-1.09-1.54-2.52-2.26-3.17-0.59
							c-2.95,7.65,1.53,20.37,7.06,29.13c2.29,3.64,5.95,7.1,8.59,6.5c2.59-0.58,3.8-3.39,4.43-6.8c4.23,5.95,9.4,11.14,14.1,12.29
							C437.95,129.2,434.3,113.81,430.92,106.8z"/>
						<g>
							<g>
								<g>
									<path class="st13" d="M397.59,117.08c-1.54-7.07-0.68-14.34,0.75-21.34c0.32-1.57-2.09-2.24-2.41-0.66
										c-1.53,7.46-2.39,15.15-0.75,22.67C395.52,119.32,397.93,118.65,397.59,117.08L397.59,117.08z"/>
								</g>
							</g>
							<g>
								<g>
									<path class="st13" d="M429.04,135.81c1.04-3.58,1.02-7.43,0.8-11.12c-0.26-4.16-0.87-8.3-1.55-12.42
										c-0.26-1.58-2.67-0.91-2.41,0.66c0.65,3.89,1.22,7.81,1.46,11.75c0.21,3.47,0.28,7.09-0.71,10.46
										C426.17,136.7,428.59,137.36,429.04,135.81L429.04,135.81z"/>
								</g>
							</g>
						</g>
					</g>
					<polygon class="st14" points="408.78,166.89 406.69,158.27 411.7,159.89 411.7,159.89 411.77,159.92 411.77,159.93 
						416.68,163.99 414.16,169.97 413.51,169.6 416.02,234.62 411.52,241.26 406.92,229.39 409.43,167.26 					"/>
					<polygon class="st15" points="413.5,155.7 421.14,162.3 422.28,176.53 411.69,160.18 401.09,164.36 402.23,151.44 
						409.52,153.41 					"/>
				</g>
				<g>
					<polygon class="st16" points="375.39,179.12 377.25,185.3 381.41,188.51 378.4,190.76 379.11,196.78 375.39,191.99 
						371.68,192.51 372.38,187.3 369.38,181.6 373.53,183.16 					"/>
					<polygon class="st16" points="393.16,189.33 395.02,195.51 399.18,198.72 396.17,200.97 396.88,206.99 393.16,202.2 
						389.45,202.72 390.16,197.51 387.15,191.81 391.3,193.37 					"/>
					<polygon class="st16" points="410.93,199.53 412.79,205.72 416.95,208.92 413.94,211.18 414.65,217.2 410.93,212.41 
						407.22,212.93 407.93,207.72 404.92,202.01 409.08,203.58 					"/>
					<polygon class="st16" points="428.71,209.74 430.57,215.92 434.72,219.13 431.72,221.38 432.42,227.41 428.71,222.62 
						424.99,223.14 425.7,217.93 422.69,212.22 426.85,213.79 					"/>
					<polygon class="st16" points="446.48,219.95 448.34,226.13 452.5,229.34 449.49,231.59 450.2,237.62 446.48,232.83 
						442.76,233.35 443.47,228.14 440.46,222.43 444.62,224 					"/>
				</g>
				<g>
					<polygon class="st17" points="461.82,261.62 360.05,203.15 360.05,196.27 461.82,254.73 					"/>
					<polygon class="st17" points="461.82,275.39 360.05,216.92 360.05,210.04 461.82,268.5 					"/>
					<polygon class="st17" points="440.26,276.34 381.61,242.65 381.61,235.76 440.26,269.46 					"/>
				</g>
			</g>
		</g>
		<g>
			<path class="st5" d="M463.04,318.08c0,6.76-4.04,9.92-9.02,7.06l-125.24-71.94c-4.98-2.86-9.02-10.66-9.02-17.42V26.35
				c0-6.76,4.04-9.92,9.02-7.06l125.24,71.94c4.98,2.86,9.02,10.66,9.02,17.42V318.08z"/>
			<g>
				<polygon class="st5" points="314.21,22.33 323.74,18.51 328.87,28.52 319.45,33.77 				"/>
				<polygon class="st6" points="459.33,325.85 449.8,329.66 444.67,319.65 454.09,314.4 				"/>
			</g>
			<g>
				<g>
					<g>
						<defs>
							<path id="SVGID_5_" d="M453.49,321.9c0,6.76-4.04,9.92-9.02,7.06l-125.24-71.94c-4.98-2.86-9.02-10.66-9.02-17.42V30.17
								c0-6.76,4.04-9.92,9.02-7.06l125.24,71.94c4.98,2.86,9.02,10.66,9.02,17.42V321.9z"/>
						</defs>
						<clipPath id="SVGID_6_">
							<use xlink:href="#SVGID_5_"  style="overflow:visible;"/>
						</clipPath>
						<path class="st18" d="M453.49,321.9c0,6.76-4.04,9.92-9.02,7.06l-125.24-71.94c-4.98-2.86-9.02-10.66-9.02-17.42V30.17
							c0-6.76,4.04-9.92,9.02-7.06l125.24,71.94c4.98,2.86,9.02,10.66,9.02,17.42V321.9z"/>
						<polygon class="st19" points="472.53,141.08 295.52,39.4 295.52,-11.37 472.53,90.31 						"/>
					</g>
					<g>
						<path class="st9" d="M323.29,41.31c0,1.75-1.05,2.57-2.34,1.83c-1.29-0.74-2.34-2.76-2.34-4.52c0-1.75,1.05-2.57,2.34-1.83
							C322.24,37.53,323.29,39.55,323.29,41.31z"/>
						<path class="st9" d="M335.31,48.21c0,1.75-1.05,2.57-2.34,1.83c-1.29-0.74-2.34-2.76-2.34-4.52c0-1.75,1.05-2.57,2.34-1.83
							C334.26,44.44,335.31,46.46,335.31,48.21z"/>
						<path class="st9" d="M347.33,55.12c0,1.75-1.05,2.57-2.34,1.83c-1.29-0.74-2.34-2.76-2.34-4.52c0-1.75,1.05-2.57,2.34-1.83
							C346.29,51.34,347.33,53.37,347.33,55.12z"/>
					</g>
				</g>
				<g>
					<defs>
						<path id="SVGID_7_" d="M422.43,175.77c0,30.42-18.17,44.64-40.58,31.77c-22.41-12.87-40.58-47.97-40.58-78.38
							c0-30.42,18.17-44.64,40.58-31.77C404.26,110.25,422.43,145.35,422.43,175.77z"/>
					</defs>
					<clipPath id="SVGID_8_">
						<use xlink:href="#SVGID_7_"  style="overflow:visible;"/>
					</clipPath>
					<path class="st20" d="M422.43,175.77c0,30.42-18.17,44.64-40.58,31.77c-22.41-12.87-40.58-47.97-40.58-78.38
						c0-30.42,18.17-44.64,40.58-31.77C404.26,110.25,422.43,145.35,422.43,175.77z"/>
					<g class="st21">
						<g>
							<polygon class="st9" points="377.45,176.2 387.73,182.11 387.73,164.77 377.45,158.86 							"/>
							<path class="st9" d="M366.25,132.39c0.1,5.23-0.3,11.14,1.14,16.87c4.35,17.3,26.75,30.57,30.55,17.07
								c1.25-4.43,0.95-10.72,1.01-16.05c0.06-5.89-0.17-11.99-0.57-18.12c-0.66-10.22-8.96-18.72-14.97-22.24
								c-5.44-3.18-15.97-5.08-16.61,4.09C366.39,119.97,366.13,126.1,366.25,132.39z"/>
							<g>
								<path class="st9" d="M367.38,134.73c-0.21-0.8-0.43-1.58-0.69-2.37c-0.05-0.16-0.12-0.42-0.15-0.54
									c0.02,0.09,0.07,0.29,0.15,0.64c-0.09-0.36-0.18-0.72-0.29-1.08c-0.5-1.17-0.52-1.22-0.07-0.15
									c-0.46-1.14-1.27-2.34-2.09-2.87c-0.09-0.1-0.18-0.19-0.28-0.29c-1.23-1.13-2.49-1.17-3.31-0.37
									c-1.79,1.74-1.27,6.27,0.28,9.85c0.67,1.55,1.9,2.99,2.97,3.55c1.43,0.74,2.58,0.19,3.25-1.09
									C367.85,138.71,367.92,136.81,367.38,134.73z"/>
								<path class="st9" d="M398.01,157.72c0.67,2.05,1.82,3.93,3.25,4.83c1.08,0.68,2.31,0.65,2.97-0.13
									c1.55-1.8,2.08-5.72,0.29-9.52c-0.82-1.74-2.08-3.14-3.31-3.43c-0.1-0.02-0.19-0.03-0.28-0.03
									c-0.82-0.41-1.63-0.14-2.09,0.47c0.45-0.55,0.42-0.53-0.07,0.06c-0.11,0.24-0.2,0.49-0.29,0.75
									c0.08-0.26,0.13-0.4,0.15-0.47c-0.03,0.09-0.09,0.27-0.15,0.37c-0.26,0.5-0.48,1.02-0.69,1.58
									C397.26,153.66,397.33,155.65,398.01,157.72z"/>
							</g>
							<path class="st12" d="M405.73,208.41c-0.49-12.31-10.66-27.76-23.14-34.92c-12.48-7.17-22.65-3.4-23.14,8.34l-0.02-0.01
								v65.89l46.32,26.61v-65.9L405.73,208.41z"/>
						</g>
						<path class="st13" d="M401.84,123.96c-6.04-12.55-28.56-34.77-31.41-19.95c-1.09-1.54-2.52-2.26-3.17-0.59
							c-2.95,7.65,1.53,20.37,7.06,29.13c2.29,3.64,5.95,7.1,8.59,6.51c2.59-0.58,3.8-3.39,4.43-6.81
							c4.23,5.95,9.4,11.14,14.1,12.29C408.87,146.36,405.22,130.97,401.84,123.96z"/>
						<g>
							<g>
								<g>
									<path class="st13" d="M368.51,134.25c-1.54-7.07-0.68-14.34,0.75-21.34c0.32-1.57-2.09-2.24-2.41-0.66
										c-1.53,7.46-2.39,15.15-0.75,22.67C366.44,136.48,368.85,135.82,368.51,134.25L368.51,134.25z"/>
								</g>
							</g>
							<g>
								<g>
									<path class="st13" d="M399.96,152.97c1.04-3.58,1.02-7.43,0.8-11.12c-0.26-4.16-0.87-8.3-1.55-12.42
										c-0.26-1.58-2.67-0.91-2.41,0.66c0.65,3.89,1.22,7.81,1.46,11.75c0.21,3.47,0.28,7.09-0.71,10.46
										C397.09,153.86,399.51,154.52,399.96,152.97L399.96,152.97z"/>
								</g>
							</g>
						</g>
					</g>
					<polygon class="st22" points="379.7,184.05 377.61,175.44 382.62,177.06 382.62,177.05 382.68,177.08 382.68,177.09 
						387.6,181.15 385.08,187.13 384.42,186.76 386.94,251.79 382.44,258.42 377.84,246.56 380.35,184.42 					"/>
					<polygon class="st23" points="384.41,172.86 392.06,179.46 393.19,193.69 382.6,177.34 372.01,181.52 373.15,168.6 
						380.44,170.57 					"/>
				</g>
				<g>
					<polygon class="st16" points="346.31,196.28 348.17,202.46 352.33,205.67 349.32,207.92 350.03,213.95 346.31,209.16 
						342.59,209.67 343.3,204.47 340.3,198.76 344.45,200.33 					"/>
					<polygon class="st16" points="364.08,206.49 365.94,212.67 370.1,215.88 367.09,218.13 367.8,224.15 364.08,219.37 
						360.37,219.88 361.07,214.67 358.07,208.97 362.22,210.53 					"/>
					<polygon class="st16" points="381.85,216.7 383.71,222.88 387.87,226.09 384.86,228.34 385.57,234.36 381.85,229.57 
						378.14,230.09 378.85,224.88 375.84,219.18 379.99,220.74 					"/>
					<polygon class="st16" points="399.63,226.91 401.48,233.09 405.64,236.3 402.63,238.55 403.34,244.57 399.63,239.78 
						395.91,240.3 396.62,235.09 393.61,229.38 397.77,230.95 					"/>
					<polygon class="st16" points="417.4,237.11 419.26,243.29 423.41,246.5 420.41,248.76 421.12,254.78 417.4,249.99 
						413.68,250.51 414.39,245.3 411.38,239.59 415.54,241.16 					"/>
				</g>
				<g>
					<polygon class="st17" points="432.74,278.78 330.97,220.32 330.97,213.43 432.74,271.89 					"/>
					<polygon class="st17" points="432.74,292.55 330.97,234.09 330.97,227.2 432.74,285.66 					"/>
					<polygon class="st17" points="411.18,293.51 352.53,259.81 352.53,252.93 411.18,286.62 					"/>
				</g>
			</g>
		</g>
		<g>
			<path class="st5" d="M435.07,335.08c0,6.76-4.04,9.92-9.02,7.06L300.81,270.2c-4.98-2.86-9.02-10.66-9.02-17.42V43.36
				c0-6.76,4.04-9.92,9.02-7.06l125.24,71.94c4.98,2.86,9.02,10.66,9.02,17.42V335.08z"/>
			<g>
				<polygon class="st5" points="286.24,39.33 295.77,35.51 300.9,45.53 291.48,50.77 				"/>
				<polygon class="st6" points="431.36,342.85 421.83,346.66 416.7,336.65 426.12,331.41 				"/>
			</g>
			<g>
				<g>
					<g>
						<defs>
							<path id="SVGID_9_" d="M425.53,338.9c0,6.76-4.04,9.92-9.02,7.06l-125.24-71.94c-4.98-2.86-9.02-10.66-9.02-17.42V47.17
								c0-6.76,4.04-9.92,9.02-7.06l125.24,71.94c4.98,2.86,9.02,10.66,9.02,17.42V338.9z"/>
						</defs>
						<clipPath id="SVGID_10_">
							<use xlink:href="#SVGID_9_"  style="overflow:visible;"/>
						</clipPath>
						<path class="st24" d="M425.53,338.9c0,6.76-4.04,9.92-9.02,7.06l-125.24-71.94c-4.98-2.86-9.02-10.66-9.02-17.42V47.17
							c0-6.76,4.04-9.92,9.02-7.06l125.24,71.94c4.98,2.86,9.02,10.66,9.02,17.42V338.9z"/>
						<polygon class="st25" points="444.56,158.09 267.55,56.41 267.55,5.64 444.56,107.32 						"/>
					</g>
					<g>
						<path class="st9" d="M295.32,58.31c0,1.75-1.05,2.57-2.34,1.83c-1.29-0.74-2.34-2.76-2.34-4.52c0-1.75,1.05-2.57,2.34-1.83
							C294.27,54.53,295.32,56.56,295.32,58.31z"/>
						<path class="st9" d="M307.34,65.22c0,1.75-1.05,2.57-2.34,1.83c-1.29-0.74-2.34-2.76-2.34-4.52s1.05-2.57,2.34-1.83
							C306.3,61.44,307.34,63.46,307.34,65.22z"/>
						<path class="st9" d="M319.37,72.12c0,1.75-1.05,2.57-2.34,1.83c-1.29-0.74-2.34-2.76-2.34-4.52c0-1.75,1.05-2.57,2.34-1.83
							C318.32,68.35,319.37,70.37,319.37,72.12z"/>
					</g>
				</g>
				<g>
					<defs>
						<path id="SVGID_11_" d="M394.47,192.77c0,30.42-18.17,44.64-40.58,31.77c-22.41-12.87-40.58-47.97-40.58-78.38
							c0-30.42,18.17-44.64,40.58-31.77C376.3,127.26,394.47,162.35,394.47,192.77z"/>
					</defs>
					<clipPath id="SVGID_12_">
						<use xlink:href="#SVGID_11_"  style="overflow:visible;"/>
					</clipPath>
					<path class="st26" d="M394.47,192.77c0,30.42-18.17,44.64-40.58,31.77c-22.41-12.87-40.58-47.97-40.58-78.38
						c0-30.42,18.17-44.64,40.58-31.77C376.3,127.26,394.47,162.35,394.47,192.77z"/>
					<g class="st27">
						<g>
							<path class="st28" d="M376.55,169.9c-0.82-1.74-2.08-3.14-3.31-3.43c-0.1-0.02-0.19-0.03-0.28-0.03
								c-0.77-0.38-1.51-0.16-1.98,0.37c0-0.01,0-0.02,0-0.03c0.25-0.31,0.25-0.32,0-0.02c0.05-5.73-0.18-11.64-0.57-17.59
								c-0.66-10.22-8.96-18.72-14.97-22.24c-5.44-3.19-15.97-5.08-16.61,4.09c-0.39,5.51-0.62,11.17-0.56,16.97
								c-0.27-0.63-0.27-0.62,0,0.02c0,0.01,0,0.02,0,0.03c-0.47-1.07-1.22-2.16-1.99-2.67c-0.09-0.1-0.18-0.19-0.28-0.29
								c-1.23-1.13-2.49-1.17-3.31-0.37c-1.79,1.73-1.27,6.27,0.28,9.84c0.67,1.55,1.9,2.99,2.97,3.55c0.95,0.49,1.77,0.4,2.41-0.08
								c0.1,2.73,0.37,5.5,1.05,8.24c1.57,6.26,5.51,11.97,10.07,16.1v10.84l10.28,5.9v-10.69c4.73,1.27,8.78-0.02,10.21-5.09
								c0.55-1.95,0.79-4.26,0.9-6.68c0.65,1.23,1.46,2.29,2.41,2.9c1.08,0.68,2.31,0.65,2.97-0.13
								C377.81,177.62,378.34,173.69,376.55,169.9z"/>
							<path class="st12" d="M377.76,225.41c-0.49-12.31-10.66-27.76-23.14-34.92c-12.48-7.17-22.65-3.41-23.14,8.34l-0.02-0.01
								v65.89l46.32,26.61v-65.9L377.76,225.41z"/>
						</g>
						<path class="st13" d="M373.87,140.97c-6.04-12.55-28.56-34.77-31.41-19.95c-1.09-1.54-2.52-2.26-3.17-0.59
							c-2.95,7.65,1.53,20.37,7.06,29.13c2.29,3.64,5.95,7.1,8.59,6.5c2.59-0.58,3.8-3.39,4.43-6.8c4.23,5.95,9.4,11.14,14.1,12.29
							C380.9,163.36,377.25,147.98,373.87,140.97z"/>
						<g>
							<g>
								<g>
									<path class="st13" d="M340.54,151.25c-1.54-7.07-0.68-14.34,0.75-21.34c0.32-1.57-2.09-2.24-2.41-0.66
										c-1.53,7.46-2.39,15.15-0.75,22.67C338.47,153.48,340.88,152.82,340.54,151.25L340.54,151.25z"/>
								</g>
							</g>
							<g>
								<g>
									<path class="st13" d="M371.99,169.98c1.04-3.58,1.02-7.43,0.8-11.12c-0.26-4.16-0.87-8.3-1.55-12.42
										c-0.26-1.58-2.67-0.91-2.41,0.66c0.65,3.89,1.22,7.81,1.46,11.75c0.21,3.47,0.28,7.09-0.71,10.46
										C369.13,170.86,371.54,171.52,371.99,169.98L371.99,169.98z"/>
								</g>
							</g>
						</g>
					</g>
					<polygon class="st29" points="351.74,201.05 349.64,192.44 354.66,194.06 354.66,194.05 354.72,194.08 354.72,194.09 
						359.63,198.15 357.11,204.14 356.46,203.76 358.97,268.79 354.47,275.43 349.87,263.56 352.39,201.42 					"/>
					<polygon class="st30" points="356.45,189.86 364.09,196.46 365.23,210.7 354.64,194.35 344.04,198.53 345.18,185.61 
						352.47,187.58 					"/>
				</g>
				<g>
					<polygon class="st16" points="318.34,213.28 320.2,219.46 324.36,222.67 321.35,224.92 322.06,230.95 318.34,226.16 
						314.63,226.68 315.33,221.47 312.33,215.76 316.48,217.33 					"/>
					<polygon class="st16" points="336.11,223.49 337.97,229.67 342.13,232.88 339.12,235.13 339.83,241.16 336.11,236.37 
						332.4,236.89 333.11,231.68 330.1,225.97 334.26,227.54 					"/>
					<polygon class="st16" points="353.89,233.7 355.74,239.88 359.9,243.09 356.89,245.34 357.6,251.37 353.89,246.58 
						350.17,247.1 350.88,241.89 347.87,236.18 352.03,237.75 					"/>
					<polygon class="st16" points="371.66,243.91 373.52,250.09 377.67,253.3 374.67,255.55 375.38,261.57 371.66,256.79 
						367.94,257.3 368.65,252.09 365.64,246.39 369.8,247.95 					"/>
					<polygon class="st16" points="389.43,254.12 391.29,260.3 395.45,263.51 392.44,265.76 393.15,271.78 389.43,266.99 
						385.71,267.51 386.42,262.3 383.41,256.6 387.57,258.16 					"/>
				</g>
				<g>
					<polygon class="st17" points="404.78,295.78 303,237.32 303,230.43 404.78,288.9 					"/>
					<polygon class="st17" points="404.78,309.55 303,251.09 303,244.2 404.78,302.67 					"/>
					<polygon class="st17" points="383.21,310.51 324.56,276.81 324.56,269.93 383.21,303.62 					"/>
				</g>
			</g>
		</g>
		<g>
			<g>
				<g>
					<path class="st5" d="M249.3,277.82c0,4.83-2.88,7.08-6.44,5.04l-89.39-51.35c-3.55-2.04-6.44-7.61-6.44-12.43V69.6
						c0-4.83,2.88-7.08,6.44-5.04l89.39,51.35c3.55,2.04,6.44,7.61,6.44,12.43V277.82z"/>
					<g>
						<polygon class="st5" points="143.07,66.72 149.87,64 153.53,71.15 146.81,74.89 						"/>
						<polygon class="st5" points="247.48,282.83 241.11,287.96 236.19,278.94 242.91,275.2 						"/>
					</g>
				</g>
				<g>
					<g>
						<g>
							<defs>
								<path id="SVGID_13_" d="M243.38,282.62c0,4.87-2.91,7.15-6.5,5.08l-90.21-51.82c-3.59-2.06-6.5-7.68-6.5-12.55V72.5
									c0-4.87,2.91-7.15,6.5-5.08l90.21,51.82c3.59,2.06,6.5,7.68,6.5,12.55V282.62z"/>
							</defs>
							<clipPath id="SVGID_14_">
								<use xlink:href="#SVGID_13_"  style="overflow:visible;"/>
							</clipPath>
							<path class="st31" d="M243.38,282.62c0,4.87-2.91,7.15-6.5,5.08l-90.21-51.82c-3.59-2.06-6.5-7.68-6.5-12.55V72.5
								c0-4.87,2.91-7.15,6.5-5.08l90.21,51.82c3.59,2.06,6.5,7.68,6.5,12.55V282.62z"/>
							<polygon class="st31" points="257.09,152.39 129.59,79.15 129.59,42.58 257.09,115.82 							"/>
						</g>
						<g>
							<path class="st9" d="M149.59,80.52c0,1.26-0.75,1.85-1.68,1.32c-0.93-0.53-1.68-1.99-1.68-3.25s0.75-1.85,1.68-1.32
								C148.84,77.8,149.59,79.26,149.59,80.52z"/>
							<path class="st9" d="M158.25,85.5c0,1.26-0.75,1.85-1.68,1.32c-0.93-0.53-1.68-1.99-1.68-3.25c0-1.26,0.75-1.85,1.68-1.32
								C157.5,82.78,158.25,84.23,158.25,85.5z"/>
							<path class="st9" d="M166.92,90.47c0,1.26-0.76,1.85-1.68,1.32c-0.93-0.53-1.69-1.99-1.69-3.25c0-1.26,0.75-1.85,1.69-1.32
								C166.16,87.75,166.92,89.21,166.92,90.47z"/>
						</g>
					</g>
					<g>
						<defs>
							<path id="SVGID_15_" d="M221.01,177.37c0,21.91-13.09,32.15-29.23,22.88c-16.14-9.27-29.23-34.55-29.23-56.46
								c0-21.91,13.09-32.15,29.23-22.88C207.92,130.18,221.01,155.46,221.01,177.37z"/>
						</defs>
						<clipPath id="SVGID_16_">
							<use xlink:href="#SVGID_15_"  style="overflow:visible;"/>
						</clipPath>
						<path class="st32" d="M221.01,177.37c0,21.91-13.09,32.15-29.23,22.88c-16.14-9.27-29.23-34.55-29.23-56.46
							c0-21.91,13.09-32.15,29.23-22.88C207.92,130.18,221.01,155.46,221.01,177.37z"/>
						<g class="st33">
							<g>
								<path class="st28" d="M208.1,160.89c-0.59-1.25-1.5-2.26-2.38-2.47c-0.07-0.02-0.13-0.02-0.2-0.02
									c-0.55-0.27-1.09-0.12-1.43,0.26c0-0.01,0-0.01,0-0.02c0.19-0.23,0.19-0.23,0-0.01c0.03-4.13-0.13-8.39-0.41-12.67
									c-0.48-7.36-6.46-13.48-10.78-16.02c-3.92-2.29-11.5-3.66-11.96,2.95c-0.28,3.98-0.44,8.07-0.39,12.25
									c-0.21-0.49-0.21-0.49,0,0.01c0,0.01,0,0.01,0,0.02c-0.34-0.78-0.89-1.58-1.45-1.94c-0.07-0.07-0.13-0.14-0.2-0.21
									c-0.89-0.82-1.79-0.85-2.38-0.27c-1.29,1.25-0.91,4.51,0.2,7.09c0.48,1.11,1.37,2.16,2.14,2.56
									c0.68,0.35,1.27,0.27,1.74-0.08c0.07,1.97,0.26,3.98,0.76,5.96c1.13,4.51,3.97,8.63,7.25,11.6v7.81l7.4,4.25v-7.7
									c3.41,0.92,6.33-0.01,7.35-3.66c0.4-1.4,0.57-3.07,0.65-4.81c0.47,0.89,1.05,1.65,1.74,2.09c0.78,0.49,1.66,0.47,2.14-0.1
									C209.01,166.45,209.39,163.63,208.1,160.89z"/>
								<path class="st12" d="M208.98,200.88c-0.35-8.87-7.68-19.99-16.67-25.15c-8.99-5.16-16.31-2.45-16.67,6.01l-0.02-0.01v47.46
									l33.37,19.17v-47.46L208.98,200.88z"/>
							</g>
							<path class="st13" d="M204.64,140.7c-2.22-9.19-22.21-22.13-23.93-14.01c-2.07,9.75,21.02,24.38,23.8,17.38
								C204.92,143.05,204.93,141.91,204.64,140.7z"/>
							<g>
								<g>
									<g>
										<path class="st13" d="M182.5,147.37c-1.09-5.02-0.48-10.2,0.54-15.19c0.32-1.57-2.09-2.24-2.41-0.66
											c-1.11,5.44-1.74,11.03-0.54,16.52C180.43,149.6,182.84,148.94,182.5,147.37L182.5,147.37z"/>
									</g>
								</g>
								<g>
									<g>
										<path class="st13" d="M205.15,161.05c0.76-2.6,0.75-5.42,0.59-8.1c-0.19-3.03-0.63-6.04-1.13-9.04
											c-0.26-1.58-2.67-0.91-2.41,0.66c0.46,2.77,0.86,5.56,1.04,8.37c0.15,2.47,0.2,5.04-0.5,7.44
											C202.29,161.93,204.7,162.59,205.15,161.05L205.15,161.05z"/>
									</g>
								</g>
							</g>
						</g>
						<polygon class="st32" points="190.23,183.33 188.72,177.13 192.33,178.3 192.33,178.29 192.38,178.32 192.38,178.32 
							195.91,181.25 194.1,185.56 193.63,185.29 195.44,232.12 192.2,236.91 188.88,228.36 190.7,183.6 						"/>
						<polygon class="st34" points="193.62,175.28 199.13,180.03 199.95,190.28 192.32,178.5 184.69,181.52 185.51,172.21 
							190.76,173.63 						"/>
					</g>
					<g>
						<polygon class="st16" points="166.18,192.14 167.52,196.6 170.51,198.91 168.34,200.53 168.86,204.87 166.18,201.42 
							163.5,201.79 164.01,198.04 161.84,193.93 164.84,195.06 						"/>
						<polygon class="st16" points="178.98,199.5 180.32,203.95 183.31,206.26 181.14,207.88 181.66,212.22 178.98,208.77 
							176.3,209.15 176.81,205.39 174.65,201.28 177.64,202.41 						"/>
						<polygon class="st16" points="191.78,206.85 193.12,211.3 196.11,213.61 193.94,215.23 194.46,219.58 191.78,216.13 
							189.1,216.5 189.61,212.75 187.45,208.64 190.44,209.77 						"/>
						<polygon class="st16" points="204.58,214.2 205.92,218.66 208.91,220.97 206.75,222.59 207.26,226.93 204.58,223.48 
							201.9,223.85 202.41,220.1 200.25,215.99 203.24,217.12 						"/>
						<polygon class="st16" points="217.38,221.56 218.72,226.01 221.71,228.32 219.55,229.94 220.06,234.28 217.38,230.83 
							214.7,231.21 215.21,227.45 213.05,223.34 216.04,224.47 						"/>
					</g>
					<g>
						<polygon class="st35" points="228.43,251.57 155.12,209.46 155.12,204.5 228.43,246.61 						"/>
						<polygon class="st35" points="228.43,261.49 155.12,219.38 155.12,214.42 228.43,256.53 						"/>
						<polygon class="st35" points="212.9,262.18 170.65,237.91 170.65,232.95 212.9,257.22 						"/>
					</g>
				</g>
			</g>
			<g>
				<g>
					<path class="st5" d="M481.15,410.91c0,4.83-2.88,7.08-6.44,5.04l-89.39-51.35c-3.55-2.04-6.44-7.61-6.44-12.43V202.69
						c0-4.83,2.88-7.08,6.44-5.04L474.71,249c3.56,2.04,6.44,7.61,6.44,12.43V410.91z"/>
					<g>
						<polygon class="st5" points="374.92,199.81 381.72,197.09 385.38,204.23 378.66,207.98 						"/>
						<polygon class="st5" points="479.19,416.08 473.1,420.93 468.04,412.03 474.76,408.29 						"/>
					</g>
				</g>
				<g>
					<g>
						<g>
							<defs>
								<path id="SVGID_17_" d="M475.16,415.77c0,4.87-2.91,7.14-6.5,5.08l-90.21-51.82c-3.59-2.06-6.49-7.68-6.49-12.55V205.64
									c0-4.87,2.91-7.14,6.49-5.08l90.21,51.82c3.59,2.06,6.5,7.68,6.5,12.55V415.77z"/>
							</defs>
							<use xlink:href="#SVGID_17_"  style="overflow:visible;fill:#5F25E9;"/>
							<clipPath id="SVGID_18_">
								<use xlink:href="#SVGID_17_"  style="overflow:visible;"/>
							</clipPath>
							<path class="st36" d="M475.16,415.77c0,4.87-2.91,7.14-6.5,5.08l-90.21-51.82c-3.59-2.06-6.49-7.68-6.49-12.55V205.64
								c0-4.87,2.91-7.14,6.49-5.08l90.21,51.82c3.59,2.06,6.5,7.68,6.5,12.55V415.77z"/>
							<polygon class="st37" points="488.88,285.53 361.38,212.29 361.38,175.72 488.88,248.96 							"/>
						</g>
						<g>
							<path class="st9" d="M381.38,213.66c0,1.26-0.76,1.85-1.68,1.32c-0.93-0.53-1.68-1.99-1.68-3.25c0-1.26,0.75-1.85,1.68-1.32
								C380.62,210.94,381.38,212.4,381.38,213.66z"/>
							<path class="st9" d="M390.04,218.64c0,1.26-0.75,1.85-1.68,1.32c-0.93-0.53-1.68-1.99-1.68-3.25c0-1.26,0.75-1.85,1.68-1.32
								C389.29,215.92,390.04,217.37,390.04,218.64z"/>
							<path class="st9" d="M398.7,223.61c0,1.26-0.75,1.85-1.68,1.32c-0.93-0.53-1.68-1.99-1.68-3.25c0-1.26,0.75-1.85,1.68-1.32
								C397.95,220.89,398.7,222.35,398.7,223.61z"/>
						</g>
					</g>
					<g>
						<defs>
							<path id="SVGID_19_" d="M452.79,310.51c0,21.91-13.09,32.15-29.23,22.88c-16.14-9.27-29.23-34.55-29.23-56.46
								c0-21.91,13.09-32.15,29.23-22.88C439.71,263.32,452.79,288.6,452.79,310.51z"/>
						</defs>
						<use xlink:href="#SVGID_19_"  style="overflow:visible;fill:#B7D4F6;"/>
						<clipPath id="SVGID_20_">
							<use xlink:href="#SVGID_19_"  style="overflow:visible;"/>
						</clipPath>
						<path class="st38" d="M452.79,310.51c0,21.91-13.09,32.15-29.23,22.88c-16.14-9.27-29.23-34.55-29.23-56.46
							c0-21.91,13.09-32.15,29.23-22.88C439.71,263.32,452.79,288.6,452.79,310.51z"/>
						<g class="st39">
							<path class="st13" d="M409.47,313.19c8.74,5.78,21.16-6.77,14.61-23.9c-5.7-14.9-23.04-0.35-21.59,9.62
								C403.59,306.55,406.29,311.08,409.47,313.19z"/>
							<path class="st13" d="M438.63,329.94c-8.74-4.26-21.16-31.08-14.61-40.68c5.7-8.35,23.04,26.13,21.59,34.43
								C444.51,330.05,441.81,331.49,438.63,329.94z"/>
							<g>
								<polygon class="st28" points="420.39,310.83 427.8,315.08 427.8,302.59 420.39,298.34 								"/>
								<path class="st28" d="M412.32,279.27c0.07,3.77-0.22,8.02,0.82,12.15c3.13,12.47,19.27,22.02,22.01,12.3
									c0.9-3.19,0.69-7.72,0.73-11.56c0.05-4.24-0.12-8.63-0.41-13.05c-0.48-7.36-6.45-13.48-10.78-16.02
									c-3.92-2.29-11.5-3.66-11.96,2.95C412.42,270.33,412.24,274.74,412.32,279.27z"/>
								<g>
									<path class="st28" d="M413.14,280.96c-0.15-0.58-0.31-1.14-0.5-1.71c-0.04-0.11-0.08-0.3-0.11-0.39
										c0.02,0.07,0.05,0.21,0.11,0.47c-0.06-0.26-0.13-0.52-0.21-0.78c-0.36-0.84-0.37-0.87-0.05-0.11
										c-0.33-0.82-0.92-1.68-1.51-2.07c-0.06-0.07-0.13-0.14-0.2-0.21c-0.89-0.81-1.79-0.85-2.38-0.27
										c-1.29,1.25-0.91,4.52,0.2,7.09c0.48,1.11,1.37,2.16,2.14,2.56c1.03,0.53,1.86,0.13,2.34-0.79
										C413.47,283.82,413.53,282.45,413.14,280.96z"/>
									<path class="st28" d="M435.2,297.51c0.48,1.48,1.31,2.83,2.34,3.48c0.78,0.49,1.66,0.46,2.14-0.1
										c1.12-1.3,1.5-4.12,0.21-6.86c-0.59-1.26-1.5-2.26-2.38-2.47c-0.07-0.02-0.14-0.02-0.2-0.02c-0.59-0.29-1.18-0.1-1.51,0.34
										c0.32-0.4,0.31-0.38-0.05,0.05c-0.08,0.17-0.14,0.35-0.2,0.54c0.06-0.19,0.09-0.29,0.11-0.34
										c-0.02,0.07-0.07,0.2-0.11,0.27c-0.19,0.36-0.35,0.73-0.5,1.14C434.66,294.59,434.71,296.02,435.2,297.51z"/>
								</g>
								<path class="st9" d="M440.76,334.02c-0.35-8.87-7.68-19.99-16.67-25.15c-8.99-5.16-16.31-2.45-16.67,6.01l-0.02-0.01v47.46
									l33.37,19.17v-47.46L440.76,334.02z"/>
							</g>
							<path class="st13" d="M436.75,278.67c-0.57-1.74-1.16-3.29-1.56-4.26c-4.31-10.49-16.63-19.06-21.35-13.39
								c-2.94,3.53,11,27.54,15.61,28.04c3.06,0.33,0.91-6.16-0.29-9.37c1.16,3.1,5.89,10.49,8.26,9.84
								C439.59,288.91,438.22,283.15,436.75,278.67z"/>
							<g>
								<g>
									<path class="st13" d="M410.65,274.81c1.56,14.52,6.95-4.24,7.05-9.7l-0.77-0.77C412.7,260.88,409.92,268.06,410.65,274.81z
										"/>
									<g>
										<path class="st13" d="M409.4,274.81c0.19,1.78,0.53,7.32,3.61,6.59c0.95-0.23,1.61-1.11,2.08-1.91
											c0.64-1.08,1.1-2.28,1.52-3.46c0.93-2.65,1.63-5.41,2.05-8.18c0.1-0.63,0.18-1.26,0.24-1.9c0.02-0.22,0.04-0.44,0.04-0.66
											c0.01-0.55-0.21-0.91-0.57-1.28c-1.19-1.2-2.75-2.19-4.51-1.7c-2.05,0.58-3.15,2.75-3.76,4.62
											C409.29,269.45,409.13,272.2,409.4,274.81c0.07,0.67,0.52,1.25,1.25,1.25c0.62,0,1.32-0.57,1.25-1.25
											c-0.18-1.69-0.17-3.48,0.11-5.11c0.25-1.45,0.6-2.76,1.33-3.9c0.07-0.11,0.15-0.22,0.22-0.33
											c-0.16,0.22,0.11-0.13,0.14-0.16c0.09-0.1,0.2-0.19,0.29-0.29c0.11-0.09,0.1-0.09-0.03,0.01c0.05-0.04,0.1-0.07,0.16-0.11
											c0.11-0.06,0.21-0.12,0.32-0.18c-0.29,0.16,0.04,0,0.12-0.03c0.06-0.02,0.12-0.03,0.17-0.04
											c-0.19,0.02-0.21,0.03-0.07,0.01c0.12,0.01,0.25,0,0.37,0.01c-0.35-0.02,0.06,0.03,0.14,0.05
											c0.07,0.02,0.13,0.04,0.19,0.06c-0.13-0.06-0.14-0.06,0,0c0.14,0.07,0.27,0.14,0.41,0.23c0.04,0.03,0.37,0.27,0.27,0.18
											c0.27,0.24,0.51,0.52,0.77,0.77c-0.12-0.29-0.24-0.59-0.37-0.88c-0.01,0.28-0.02,0.56-0.05,0.84
											c-0.01,0.16-0.03,0.32-0.05,0.48c-0.01,0.13-0.08,0.63-0.03,0.26c-0.11,0.79-0.25,1.57-0.4,2.35
											c-0.35,1.71-0.78,3.41-1.3,5.08c-0.25,0.78-0.51,1.56-0.82,2.32c-0.04,0.09-0.08,0.19-0.11,0.28
											c-0.09,0.22,0.09-0.2-0.01,0.02c-0.07,0.16-0.14,0.32-0.22,0.48c-0.14,0.3-0.29,0.6-0.46,0.89
											c-0.13,0.23-0.31,0.45-0.44,0.68c0.3-0.55-0.22,0.35-0.27,0.26c-0.01-0.01,0.3-0.21,0.12-0.1
											c-0.03,0.02-0.06,0.05-0.1,0.06c-0.21,0.07,0.36-0.09,0.04-0.03c0.02,0,0.39-0.03,0.2-0.03c-0.16,0,0.36,0.07,0.21,0.03
											c-0.27-0.07,0.3,0.17,0.05,0.02c-0.13-0.08,0.29,0.22,0.12,0.09c-0.07-0.06-0.12-0.21-0.03-0.02
											c0.1,0.22-0.07-0.12-0.11-0.2c-0.04-0.07-0.07-0.15-0.11-0.22c-0.12-0.23,0.07,0.21,0.01,0.01
											c-0.05-0.18-0.12-0.35-0.18-0.53c-0.34-1.15-0.49-2.27-0.6-3.33c-0.07-0.67-0.52-1.25-1.25-1.25
											C410.03,273.56,409.32,274.13,409.4,274.81z"/>
									</g>
								</g>
								<g>
									<path class="st13" d="M431.59,272.76l-0.77-0.11c0.1,5.58,5.48,30.52,7.05,17.79
										C438.59,284.53,435.81,274.15,431.59,272.76z"/>
									<g>
										<path class="st13" d="M431.92,271.56c-0.26-0.04-0.51-0.07-0.77-0.11c-0.77-0.11-1.6,0.31-1.58,1.21
											c0.06,2.92,0.68,5.88,1.25,8.74c0.67,3.34,1.42,6.72,2.6,9.92c0.53,1.45,2.21,5.58,4.38,3.42
											c0.85-0.85,1.04-2.31,1.21-3.44c0.34-2.34,0.23-4.66-0.11-6.99c-0.41-2.76-1.19-5.52-2.43-8.03
											C435.48,274.29,434.08,272.32,431.92,271.56c-1.52-0.54-2.17,1.88-0.66,2.41c1.29,0.46,2.3,2.1,2.95,3.38
											c0.97,1.91,1.58,4.01,2,6.1c0.41,2.04,0.62,4.15,0.48,6.23c-0.05,0.72-0.15,1.45-0.31,2.16
											c-0.05,0.24-0.11,0.48-0.18,0.71c-0.03,0.1-0.07,0.21-0.11,0.31c0.01-0.02,0.06-0.18-0.03,0.05
											c-0.12,0.3-0.05,0.08,0.03,0.02c0.21-0.15,0.47-0.16,0.68-0.13c-0.17-0.03,0.32,0.15,0.12,0.05
											c-0.15-0.08,0.06,0.11,0.07,0.05c0-0.01-0.14-0.14-0.14-0.15c0.01,0.03,0.13,0.22-0.01-0.02
											c-0.58-0.98-0.79-1.51-1.15-2.57c-1.02-2.93-1.72-5.98-2.33-9.01c-0.59-2.91-1.19-5.63-1.25-8.49
											c-0.53,0.4-1.05,0.8-1.58,1.21c0.26,0.04,0.51,0.07,0.77,0.11c0.67,0.1,1.33-0.17,1.54-0.87
											C432.96,272.51,432.59,271.65,431.92,271.56z"/>
									</g>
								</g>
							</g>
						</g>
						<polygon class="st40" points="416.47,303.29 417.29,313.54 422.8,339.5 426.37,341.16 430.91,321.36 431.73,312.05 						"/>
					</g>
					<g>
						<polygon class="st16" points="397.96,325.29 399.3,329.74 402.29,332.05 400.13,333.67 400.64,338.01 397.96,334.56 
							395.29,334.94 395.8,331.18 393.63,327.07 396.62,328.2 						"/>
						<polygon class="st16" points="410.76,332.64 412.1,337.09 415.1,339.4 412.93,341.02 413.44,345.37 410.76,341.91 
							408.09,342.29 408.6,338.53 406.43,334.43 409.42,335.55 						"/>
						<polygon class="st16" points="423.56,339.99 424.9,344.45 427.9,346.75 425.73,348.38 426.24,352.72 423.56,349.27 
							420.89,349.64 421.4,345.89 419.23,341.78 422.22,342.91 						"/>
						<polygon class="st16" points="436.36,347.34 437.7,351.8 440.7,354.11 438.53,355.73 439.04,360.07 436.36,356.62 433.69,357 
							434.2,353.24 432.03,349.13 435.03,350.26 						"/>
						<polygon class="st16" points="449.16,354.7 450.5,359.15 453.5,361.46 451.33,363.08 451.84,367.42 449.16,363.97 
							446.49,364.35 447,360.59 444.83,356.48 447.83,357.61 						"/>
					</g>
					<g>
						<polygon class="st17" points="460.22,384.71 386.91,342.6 386.91,337.64 460.22,379.75 						"/>
						<polygon class="st17" points="460.22,394.63 386.91,352.52 386.91,347.56 460.22,389.67 						"/>
						<polygon class="st17" points="444.69,395.32 402.44,371.05 402.44,366.09 444.69,390.36 						"/>
					</g>
				</g>
			</g>
		</g>
		<g>
			<defs>
				<polygon id="SVGID_21_" points="375.54,150.21 127.14,294.35 375.54,438.49 623.93,294.35 				"/>
			</defs>
			<clipPath id="SVGID_22_">
				<use xlink:href="#SVGID_21_"  style="overflow:visible;"/>
			</clipPath>
			<g class="st41">
				<g>
					<polygon class="st4" points="553.6,493.28 372.57,389.29 387.3,380.78 568.34,484.77 					"/>
				</g>
			</g>
		</g>
		<g>
			<polygon class="st42" points="431.66,418.2 416.76,426.67 416.66,414.53 431.56,406.07 			"/>
		</g>
	</g>
</g>
</svg>
